<svg xmlns="http://www.w3.org/2000/svg" xmlns:xlink="http://www.w3.org/1999/xlink" width="415" height="415" viewBox="0 0 415 415">
    <defs>
        <path id="0dpp7bazua" d="M0.531 0.928L3.714 0.928 3.714 4.067 0.531 4.067z"/>
    </defs>
    <g fill="none" fill-rule="evenodd">
        <text fill="#383838" font-family="TTNorms-Regular, TT Norms" font-size="16">
            <tspan x="152.1" y="224">Performance of </tspan> <tspan x="151.62" y="244">targeted panels</tspan>
        </text>
        <path fill="#CDD4DF" d="M207.336 414.586C93.034 414.586.043 321.595.043 207.293h76.232c0 72.267 58.794 131.06 131.06 131.06 23.063 0 45.724-6.061 65.534-17.529l38.19 65.978c-31.402 18.176-67.27 27.784-103.723 27.784"/>
        <path fill="#FEFEFE" d="M62.758 292.346L71.55 290.529 72.45 292.133 60.888 294.405 60.027 292.87 66.087 286.351 57.365 288.129 56.504 286.595 64.466 277.908 65.366 279.512 59.236 286.07 68.028 284.253 68.889 285.787zM70.647 296.948s1.286.193 2.091 1.386c1.028 1.525.683 3.3-1.04 4.464l-3.713 2.503-.894-1.326 3.713-2.504c.927-.626 1.144-1.735.563-2.597-.672-.995-1.782-1.211-2.975-.406l-3.447 2.325-.894-1.326 9.281-6.26.895 1.327-3.58 2.414zM76.752 306.383c-.774-1.02-2.345-1.233-3.491-.361-1.148.872-1.361 2.443-.586 3.462.775 1.019 2.346 1.232 3.492.36 1.147-.872 1.36-2.441.585-3.461m1.147-.872c1.308 1.72.957 4.3-.763 5.608-1.72 1.308-4.299.957-5.608-.763-1.307-1.721-.957-4.3.764-5.608 1.72-1.308 4.299-.957 5.607.763M76.514 316.358L75.494 315.125 84.124 307.99 85.144 309.223zM82.481 316.227l2.97 3.31c.644-.838.706-1.967-.096-2.86-.8-.892-1.93-.954-2.874-.45zm-1.055.86c-.667.814-.74 2.17.115 3.121 1.014 1.13 2.441.925 2.441.925l-.079 1.468s-1.99.175-3.434-1.432c-1.44-1.607-1.3-4.204.366-5.699 1.606-1.442 4.09-1.307 5.532.3 1.442 1.606 1.32 3.864-.286 5.306-.358.32-.649.475-.649.475l-4.006-4.464zM94.213 332.548L93.109 333.706 87.261 328.135 94.984 320.028 100.716 325.489 99.612 326.647 95.154 322.4 93.113 324.542 96.646 327.907 95.542 329.065 92.01 325.7 89.638 328.191zM99.932 339.53L98.53 338.339 98.819 334.91 95.482 335.748 94.079 334.557 98.865 333.374 99.236 328.86 100.638 330.052 100.373 333.081 103.32 332.331 104.722 333.523 100.328 334.617zM107.927 337.631c-1.02-.776-2.588-.564-3.462.581-.873 1.145-.662 2.715.357 3.491 1.017.777 2.587.565 3.46-.58.874-1.145.663-2.716-.355-3.492m.873-1.145c1.719 1.31 2.065 3.89.756 5.607-1.311 1.72-3.89 2.066-5.608.756-1.718-1.31-2.065-3.89-.755-5.608 1.31-1.718 3.889-2.065 5.607-.755M119.766 348.212c.703-1.07.52-1.957-.282-2.483-.802-.527-1.91-.298-2.7.905l-2.286 3.474-1.336-.879 2.46-3.743c.704-1.068.52-1.954-.282-2.483-.802-.526-1.91-.298-2.701.906l-2.285 3.475-1.336-.88 4.219-6.416 1.336.88-.44.668s1.196-.363 2.266.34c1.403.923 1.235 2.344 1.235 2.344s1.438-.585 2.908.382c1.47.966 1.79 2.517.56 4.389l-2.46 3.743-1.337-.88 2.46-3.743zM124.321 350.722l3.877 2.18c.343-1 .037-2.09-1.009-2.678-1.046-.588-2.135-.283-2.868.498zm-.723 1.154c-.37.985-.004 2.292 1.113 2.92 1.324.745 2.61.09 2.61.09l.396 1.417s-1.83.807-3.712-.252c-1.883-1.06-2.585-3.565-1.487-5.517 1.06-1.883 3.455-2.555 5.338-1.496 1.883 1.059 2.493 3.238 1.435 5.12-.236.419-.462.659-.462.659l-5.23-2.941zM135.648 352.65c.71-1.523 2.518-2.183 4.621-1.202 2.031.947 2.44 2.726 2.44 2.726l-1.49.543s-.248-1.175-1.625-1.817c-1.09-.507-2.046-.16-2.35.495-1.082 2.32 4.964 3.37 3.206 7.144-.811 1.74-2.726 2.439-5.047 1.358-2.468-1.15-2.885-3.287-2.885-3.287l1.488-.543s.258 1.534 2.072 2.377c1.306.61 2.37.221 2.775-.649 1.082-2.322-4.964-3.372-3.206-7.144M143.964 360.435l4.13 1.646c.208-1.037-.24-2.076-1.354-2.52-1.115-.444-2.154.003-2.776.874zm-.563 1.24c-.237 1.025.3 2.272 1.489 2.746 1.412.562 2.599-.257 2.599-.257l.58 1.351s-1.706 1.043-3.711.243c-2.007-.799-3.036-3.189-2.206-5.27.798-2.006 3.084-2.99 5.09-2.19 2.007.8 2.902 2.877 2.103 4.884-.178.445-.371.713-.371.713l-5.573-2.22zM152.166 364.433c-.456 1.367.252 2.784 1.391 3.164 1.138.38 2.556-.33 3.011-1.695.456-1.366-.252-2.783-1.39-3.164-1.139-.38-2.556.329-3.012 1.695m-1.519-.506c.709-2.126 2.937-3.24 4.835-2.606 1.442.482 2.024 1.773 2.024 1.773l.278-.836 1.519.507-3.495 10.476-1.519-.507 1.343-4.023s-1.24.683-2.683.2c-1.898-.632-3.011-2.86-2.302-4.984M164.87 371.459s-1.1.697-2.489.322c-1.777-.479-2.679-2.047-2.137-4.054l1.166-4.324 1.545.416-1.167 4.324c-.29 1.081.272 2.061 1.276 2.332 1.16.313 2.14-.251 2.513-1.641l1.084-4.015 1.544.416-2 7.412-1.544-.416.208-.772zM170.977 368.985l4.352.912c.025-1.057-.593-2.004-1.768-2.25-1.174-.246-2.121.373-2.584 1.338zm-.342 1.317c-.056 1.05.686 2.187 1.939 2.45 1.487.31 2.515-.7 2.515-.7l.805 1.232s-1.502 1.319-3.616.876c-2.113-.443-3.536-2.62-3.077-4.812.443-2.113 2.526-3.474 4.639-3.031 2.114.442 3.35 2.336 2.908 4.449-.098.47-.242.767-.242.767l-5.871-1.231zM180.65 368.573s1.014-.818 2.437-.602c1.82.275 2.894 1.733 2.583 3.79l-.67 4.431-1.583-.24.67-4.43c.168-1.108-.503-2.019-1.532-2.175-1.186-.18-2.097.492-2.313 1.916l-.622 4.114-1.583-.24 1.15-7.595 1.582.24-.12.791zM191.849 369.039c1.99.193 2.96 1.814 2.96 1.814l-1.136.936s-.608-1.185-1.963-1.316c-1.274-.123-2.497.884-2.635 2.317-.14 1.434.868 2.657 2.142 2.78 1.355.132 2.267-.986 2.267-.986l.935 1.136s-1.35 1.477-3.341 1.284c-2.15-.208-3.804-2.217-3.596-4.368.208-2.15 2.217-3.805 4.367-3.597M197.537 368.194c-.559-.033-.935-.456-.9-1.016.032-.559.455-.934 1.014-.9.56.032.935.455.902 1.014-.034.56-.456.935-1.016.902zm.26 9.153l-1.598-.094.454-7.668 1.598.094-.454 7.668zM202.134 370.663s.898-.943 2.337-.916c1.839.036 3.095 1.339 3.055 3.418l-.086 4.478-1.6-.031.086-4.477c.02-1.12-.763-1.934-1.802-1.954-1.2-.023-2.014.76-2.042 2.2l-.08 4.158-1.598-.03.146-7.676 1.6.03-.016.8zM213.252 375.908c1.119-.04 2.121-1.118 2.071-2.477-.049-1.359-1.126-2.36-2.245-2.32-1.12.041-2.121 1.117-2.072 2.477.05 1.36 1.127 2.361 2.246 2.32zm2.176.402s-.845.991-2.283 1.043c-1.919.07-3.66-1.549-3.738-3.707-.078-2.159 1.54-3.899 3.459-3.968 1.439-.053 2.354.875 2.354.875l-.03-.8 1.599-.058.262 7.196c.078 2.16-1.54 3.9-3.699 3.977-2.319.084-3.496-1.474-3.496-1.474l1.001-1.077s.923 1.167 2.443 1.112c1.279-.046 2.203-1.04 2.152-2.464l-.024-.655z"/>
        <path fill="#CDD4DF" d="M311.059 386.817l-38.19-65.978c40.419-23.395 65.527-66.897 65.527-113.531 0-46.653-25.124-90.164-65.566-113.554l38.166-65.992c30.929 17.889 56.87 43.615 75.017 74.399 18.72 31.756 28.615 68.115 28.615 105.147 0 37.019-9.888 73.368-28.596 105.116-18.135 30.775-44.061 56.5-74.973 74.393"/>
        <path fill="#414C77" d="M76.302 207.293H.07C.07 92.991 93.06 0 207.363 0c36.429 0 72.274 9.595 103.659 27.748l-38.168 65.99c-19.8-11.452-42.446-17.505-65.491-17.505-72.267 0-131.061 58.793-131.061 131.06"/>
        <path fill="#FEFEFE" d="M349.261 128.69L348.478 127.293 358.251 121.814 359.034 123.21zM358.962 130.238c.91 1.78.069 3.47.069 3.47l-1.4-.452s.67-1.15.05-2.36c-.584-1.14-2.091-1.626-3.372-.97-1.282.656-1.768 2.164-1.184 3.303.62 1.21 2.052 1.374 2.052 1.374l-.451 1.4s-1.971-.339-2.882-2.118c-.985-1.922-.187-4.398 1.735-5.383 1.922-.984 4.399-.186 5.383 1.736M360.923 147.181L369.873 146.394 370.582 148.093 358.824 149.011 358.147 147.386 364.927 141.608 356.051 142.364 355.372 140.739 364.294 133.027 365.003 134.725 358.149 140.535 367.099 139.747 367.777 141.372zM369.294 161.713l-3.814 1.202s-2.464-.901-3.426-3.953c-1.01-3.205.663-6.415 3.715-7.376 3.05-.961 6.262.711 7.27 3.915.914 2.899-.688 4.998-.688 4.998l-1.406-.732s1.266-1.573.57-3.785c-.698-2.212-3.005-3.415-5.218-2.718-2.212.698-3.414 3.005-2.717 5.218.624 1.983 1.982 2.562 1.982 2.562l1.677-.529-.648-2.06 1.525-.48 1.178 3.738zM372.23 163.51c1.632-.394 3.272.608 3.816 2.863.526 2.177-.61 3.603-.61 3.603l-1.351-.825s.764-.926.408-2.403c-.282-1.166-1.151-1.696-1.85-1.528-2.488.601.456 5.978-3.587 6.955-1.866.45-3.603-.61-4.204-3.099-.638-2.644.773-4.3.773-4.3l1.35.825s-1.038 1.156-.567 3.1c.337 1.4 1.301 1.99 2.234 1.763 2.488-.6-.455-5.978 3.587-6.954M371.087 181.59l.157-.026-.797-2.383c-.185-.537-.63-.87-1.181-.78-.474.079-.87.63-.728 1.499.208 1.263 1.127 1.923 2.549 1.69zm-3.475.57l.789-.13s-1.09-.712-1.323-2.133c-.26-1.58.664-2.867 1.77-3.05 1.263-.206 2.275.52 2.732 1.824l.928 2.685c.79-.13 1.317-.865 1.162-1.812-.221-1.343-1.351-1.806-1.351-1.806l.858-1.195s1.59.793 1.914 2.767c.31 1.895-.744 3.366-2.323 3.626l-4.897.804-.26-1.58zM375.188 186.687s1.05.77 1.207 2.2c.2 1.829-.933 3.24-3 3.467l-4.452.487-.174-1.59 4.452-.487c1.113-.122 1.822-1.004 1.707-2.037-.13-1.193-1.012-1.901-2.442-1.744l-4.135.452-.173-1.59 7.632-.835.173 1.59-.795.087zM373.252 200.446c1.437-.074 2.498-1.25 2.437-2.448-.062-1.198-1.239-2.259-2.676-2.185-1.438.074-2.498 1.25-2.437 2.448.062 1.2 1.238 2.26 2.676 2.185m2.955-.152l4.394-.227.083 1.598-11.184.576-.082-1.597.878-.045s-1.088-.905-1.166-2.423c-.103-1.997 1.563-3.845 3.801-3.96 2.236-.116 4.084 1.551 4.187 3.548.078 1.517-.911 2.53-.911 2.53M380.421 218.766L380.359 220.285 369.164 219.826 369.236 218.067 377.392 218.401 372.442 214.114 377.727 210.246 369.571 209.912 369.644 208.152 380.837 208.612 380.775 210.131 375.161 214.225zM377.857 224.04c.055-.558.491-.917 1.05-.862.556.054.916.491.861 1.05-.054.556-.49.916-1.049.861-.557-.054-.917-.49-.862-1.049zm-9.158-.09l.155-1.594 7.647.747-.156 1.593-7.646-.747zM375.783 230.693c-.269 1.981-1.926 2.887-1.926 2.887l-.89-1.17s1.207-.563 1.39-1.91c.171-1.269-.788-2.53-2.215-2.723-1.426-.194-2.687.766-2.859 2.034-.183 1.347.898 2.301.898 2.301l-1.169.891s-1.425-1.404-1.156-3.386c.29-2.14 2.362-3.716 4.501-3.425 2.141.29 3.716 2.36 3.426 4.501M372.984 238.956c.211-1.181-.437-2.11-1.854-2.362l-4.093-.73.28-1.575 7.56 1.348-.282 1.575-.788-.14s.791 1.034.538 2.45l-.07.395-1.496-.267s.135-.3.205-.694M371.816 244.532c.282-1.249-.563-2.588-1.969-2.906-1.405-.317-2.744.53-3.026 1.778-.282 1.25.564 2.588 1.97 2.905 1.404.318 2.743-.528 3.025-1.777m1.405.317c-.476 2.107-2.676 3.497-4.784 3.021-2.107-.476-3.497-2.676-3.02-4.783.475-2.108 2.675-3.497 4.783-3.022 2.107.476 3.497 2.676 3.021 4.784M366.424 253.898l.154.044.292-2.496c.06-.565-.2-1.054-.74-1.207-.461-.131-1.054.2-1.294 1.047-.35 1.231.202 2.219 1.588 2.612zm-3.387-.96l.77.218s-.684-1.109-.291-2.494c.436-1.54 1.82-2.312 2.897-2.007 1.232.349 1.839 1.436 1.698 2.81l-.301 2.826c.77.218 1.56-.223 1.822-1.147.37-1.309-.455-2.208-.455-2.208l1.284-.717s1.103 1.393.557 3.318c-.524 1.847-2.105 2.73-3.645 2.294l-4.772-1.353.436-1.54zM366.9 261.938c.376-1.14-.133-2.15-1.5-2.603l-3.952-1.305.502-1.52 7.295 2.41-.502 1.52-.76-.25s.636 1.136.184 2.504l-.125.38-1.445-.477s.177-.279.302-.659M364.962 267.31c.414-1.127-.061-2.155-1.412-2.653l-3.903-1.44.55-1.502 7.208 2.66-.551 1.5-.751-.276s.596 1.157.099 2.51l-.137.374-1.427-.526s.185-.273.324-.648M359.784 272.421l.147.062.587-2.444c.127-.554-.073-1.07-.59-1.287-.443-.185-1.072.073-1.41.886-.494 1.181-.063 2.228 1.266 2.783zm-3.249-1.356l.738.308s-.547-1.182.008-2.512c.616-1.477 2.082-2.079 3.115-1.648 1.182.494 1.656 1.645 1.353 2.993l-.636 2.77c.74.308 1.576-.036 1.946-.922.524-1.256-.189-2.247-.189-2.247l1.36-.56s.93 1.515.158 3.361c-.739 1.773-2.414 2.461-3.89 1.845l-4.58-1.91.617-1.478zM354.132 276.402l8.273.496-.724 1.515-6.018-.393 4.087 4.435-.724 1.515-6.168-6.758c-1.394-1.535-1.675-2.432-1.171-3.486.31-.65.627-.941.627-.941l1.298.62s-.316.292-.49.653c-.274.578-.1 1.14.426 1.71l.584.634zM354.794 287.796s.828-.192 1.245-.966c.34-.635.177-1.178-.176-1.366-1.268-.681-2.418 3.151-4.814 1.865-1.128-.606-1.585-2.123-.753-3.673.946-1.762 2.599-1.966 2.599-1.966l.424 1.41s-1.186.18-1.754 1.237c-.417.776-.253 1.317.24 1.583 1.269.68 2.419-3.153 4.815-1.867.987.53 1.445 2.048.688 3.457-.795 1.48-2.09 1.694-2.09 1.694l-.424-1.409zM79.699 89.842L80.901 90.896 78.686 93.421 85.901 99.747 84.741 101.07 77.527 94.744 75.312 97.269 74.11 96.215zM89.074 91.186l-.114-.111-1.435 2.06c-.319.47-.32 1.025.081 1.413.346.334 1.024.322 1.635-.311.89-.921.87-2.051-.167-3.051zm2.531 2.444l-.575-.555s.08 1.299-.92 2.334c-1.11 1.15-2.694 1.178-3.499.4-.92-.888-.942-2.131-.17-3.276l1.598-2.347c-.575-.555-1.48-.54-2.147.15-.944.979-.64 2.16-.64 2.16l-1.47.027s-.313-1.748 1.075-3.186c1.333-1.38 3.142-1.412 4.293-.301l3.567 3.443-1.112 1.15zM92.43 83.892c-.868.828-.896 1.958.098 3l2.868 3.012-1.158 1.103-5.296-5.559 1.158-1.103.552.58s-.025-1.303 1.017-2.296l.289-.276 1.049 1.101s-.287.162-.577.438M99.616 83.885c.845-.735.947-2.202.055-3.228-.893-1.025-2.36-1.128-3.204-.393-.845.735-.948 2.202-.055 3.228.892 1.026 2.36 1.128 3.204.393zm1.944-1.055s-.034 1.302-1.12 2.246c-1.448 1.26-3.818 1.095-5.235-.534-1.417-1.63-1.252-4 .196-5.26 1.086-.944 2.38-.797 2.38-.797l-.524-.603 1.206-1.05 4.724 5.43c1.417 1.63 1.252 4-.377 5.417-1.75 1.522-3.645 1.05-3.645 1.05l.102-1.467s1.452.328 2.598-.67c.966-.84 1.061-2.193.126-3.267l-.43-.495zM103.209 76.898l3.513-2.732c-.791-.703-1.914-.844-2.862-.106-.947.736-1.088 1.859-.651 2.838zm.785 1.113c.765.723 2.112.891 3.123.105 1.2-.933 1.095-2.372 1.095-2.372l1.46.182s.035 2.001-1.67 3.327c-1.706 1.327-4.289 1.004-5.665-.765-1.326-1.705-1.018-4.176.688-5.503 1.705-1.326 3.952-1.045 5.279.66.295.379.427.681.427.681l-4.737 3.685zM107.028 67.008l1.176-.83 1.476 2.09 1.307-.924.83 1.175-1.306.924 2.3 3.252c.331.47.89.566 1.346.243.326-.23.56-.593.56-.593l.832 1.176s-.3.407-.823.777c-1.176.831-2.29.64-3.213-.667l-2.308-3.266-1.175.831-.83-1.175.652-.462c.392-.277.468-.722.1-1.245l-.924-1.306zM115.242 68.124l3.741-2.41c-.724-.77-1.83-1.01-2.84-.36-1.009.65-1.25 1.756-.9 2.77zm.683 1.178c.698.789 2.025 1.076 3.102.383 1.278-.824 1.301-2.267 1.301-2.267l1.438.312s-.142 1.996-1.96 3.166c-1.816 1.17-4.36.619-5.574-1.265-1.17-1.817-.642-4.251 1.174-5.421 1.816-1.17 4.03-.691 5.2 1.126.26.404.365.716.365.716l-5.046 3.25zM127.278 61.775c-.71-1.252-2.236-1.675-3.28-1.084-1.044.592-1.466 2.118-.756 3.371.71 1.252 2.236 1.675 3.28 1.082 1.043-.59 1.466-2.118.756-3.37m-1.46-2.575l-2.169-3.825 1.392-.79 5.521 9.742-1.39.789-.435-.766s-.322 1.377-1.645 2.127c-1.739.986-4.137.323-5.242-1.624-1.104-1.95-.44-4.349 1.298-5.334 1.322-.75 2.67-.319 2.67-.319M133.417 52.147l1.678 3.631 2.469-1.141c1.017-.47 1.447-1.638.977-2.655-.47-1.017-1.638-1.446-2.655-.977l-2.469 1.142zm1.798-2.594c1.961-.906 4.085-.125 4.925 1.691.839 1.815.057 3.939-1.904 4.845l-2.469 1.142 1.678 3.632-1.598.738-4.7-10.168 4.068-1.88zM147.692 52.617l-.059-.149-2.159 1.285c-.485.296-.716.8-.51 1.321.177.446.8.715 1.62.392 1.19-.472 1.638-1.51 1.108-2.849zm1.296 3.273l-.295-.744s-.465 1.217-1.804 1.747c-1.487.59-2.94-.04-3.353-1.082-.47-1.19.023-2.332 1.2-3.056l2.426-1.477c-.294-.744-1.125-1.103-2.018-.75-1.265.501-1.476 1.703-1.476 1.703l-1.35-.584s.437-1.722 2.296-2.458c1.785-.707 3.447.012 4.036 1.5l1.825 4.612-1.487.59zM151.76 47.543s.53-1.189 1.896-1.647c1.744-.584 3.364.223 4.024 2.194l1.423 4.247-1.517.508-1.423-4.246c-.355-1.062-1.368-1.566-2.353-1.236-1.138.381-1.642 1.393-1.185 2.759l1.322 3.943-1.517.508-2.44-7.28 1.517-.508.254.758zM161.005 46.95l4.288-1.174c-.46-.952-1.442-1.512-2.6-1.195-1.157.317-1.716 1.3-1.688 2.37zm.297 1.329c.43.96 1.608 1.632 2.843 1.294 1.465-.401 1.92-1.77 1.92-1.77l1.277.729s-.734 1.859-2.817 2.43c-2.083.57-4.343-.718-4.934-2.877-.571-2.083.66-4.245 2.743-4.816 2.083-.57 4.048.55 4.619 2.633.127.462.134.792.134.792l-5.785 1.585zM171.346 49.093L169.786 49.453 167.265 38.537 168.825 38.177zM176.28 42.19s-.673-.52-1.536-.351c-.707.138-1.023.607-.946 1 .276 1.413 3.97-.124 4.491 2.544.245 1.258-.64 2.572-2.366 2.908-1.963.384-3.166-.767-3.166-.767l.821-1.22s.89.804 2.068.573c.863-.168 1.18-.637 1.072-1.187-.276-1.412-3.969.125-4.49-2.544-.216-1.1.67-2.413 2.24-2.72 1.648-.323 2.632.544 2.632.544l-.82 1.22zM273.004 94.629L272.138 94.129 310.596 27.463 311.461 27.963zM0 207.806L0 206.806 76.963 206.779 76.963 207.779zM310.784 387.397L272.279 320.759 273.144 320.259 311.649 386.897z"/>
        <g>
            <path fill="#404C77" d="M0 1.313L0 18.784 13.103 18.784 13.103 15.414 3.743 15.414 3.743 11.547 10.856 11.547 10.856 8.176 3.743 8.176 3.743 4.681 12.852 4.681 12.852 1.313zM23.188 6.553L20.941 10.174 18.694 6.553 14.951 6.553 18.82 12.543 14.701 18.784 18.32 18.784 20.941 14.915 23.563 18.784 27.181 18.784 23.062 12.543 26.931 6.553z" transform="translate(163 163)"/>
            <g>
                <path fill="#404C77" d="M6.748 15.594c1.623 0 2.995-1.372 2.995-3.244 0-1.873-1.372-3.245-2.995-3.245-1.622 0-2.995 1.372-2.995 3.245 0 1.872 1.373 3.244 2.995 3.244m0 3.12C3.254 18.715.26 15.72.26 12.35c0-3.37 2.994-6.364 6.488-6.364s6.489 2.994 6.489 6.364c0 3.369-2.995 6.365-6.49 6.365M30.87 11.726c0-1.622-.873-2.496-1.997-2.496-1.248 0-2.246.998-2.246 2.87v6.364h-3.37v-6.738c0-1.622-.873-2.496-1.996-2.496-1.248 0-2.247.998-2.247 2.87v6.364h-3.37V6.234h3.37v1.499s1.123-1.748 3.245-1.748c2.62 0 3.493 2.122 3.493 2.122s1.374-2.122 4.119-2.122c2.621 0 4.368 1.748 4.368 5.366v7.113H30.87v-6.738zM40.117 11.102h5.616c-.25-1.248-1.248-2.246-2.745-2.246s-2.495.998-2.87 2.246zm0 2.37c.25 1.25 1.374 2.372 3.245 2.372 2.121 0 3.244-1.497 3.244-1.497l1.748 2.246s-1.871 2.122-5.242 2.122c-3.619 0-6.488-2.87-6.488-6.364 0-3.495 2.87-6.366 6.364-6.366 3.495 0 6.115 2.62 6.115 6.115 0 .875-.125 1.372-.125 1.372h-8.86z" transform="translate(163 163) translate(27.45 .32)"/>
                <path fill="#9AA9C0" d="M55.456 13.289L55.456 8.787 50.953 8.787 50.953 5.477 55.456 5.477 55.456 0.976 58.499 0.976 58.499 5.477 63.003 5.477 63.003 8.787 58.499 8.787 58.499 13.289z" transform="translate(163 163) translate(27.45 .32)"/>
                <g transform="translate(163 163) translate(27.45 .32) translate(62.384)">
                    <mask id="jf5rmaym8b" fill="#fff">
                        <use xlink:href="#0dpp7bazua"/>
                    </mask>
                    <path fill="#9AA9C0" d="M1.84 2.431h.37c.196 0 .282-.087.282-.24 0-.151-.086-.24-.282-.24h-.37v.48zm.98.872h-.28l-.33-.61h-.37v.61h-.262V1.69h.614c.323 0 .541.219.541.502 0 .327-.304.435-.304.435l.391.676zm-.697.502c.74 0 1.308-.568 1.308-1.308 0-.742-.568-1.308-1.308-1.308-.741 0-1.308.566-1.308 1.308 0 .74.567 1.308 1.308 1.308zm0 .262c-.89 0-1.592-.699-1.592-1.57 0-.872.702-1.57 1.592-1.57.888 0 1.59.698 1.59 1.57 0 .871-.702 1.57-1.59 1.57z" mask="url(#jf5rmaym8b)"/>
                </g>
            </g>
        </g>
        <path stroke="#404C77" stroke-linecap="round" d="M178.526 197.613L237.526 197.613"/>
    </g>
</svg>
